<?xml version="1.0" encoding="UTF-8" standalone="no"?>
<svg
   xmlns:dc="http://purl.org/dc/elements/1.1/"
   xmlns:cc="http://creativecommons.org/ns#"
   xmlns:rdf="http://www.w3.org/1999/02/22-rdf-syntax-ns#"
   xmlns:svg="http://www.w3.org/2000/svg"
   xmlns="http://www.w3.org/2000/svg"
   xmlns:sodipodi="http://sodipodi.sourceforge.net/DTD/sodipodi-0.dtd"
   xmlns:inkscape="http://www.inkscape.org/namespaces/inkscape"
   width="171.1835pt"
   height="167.99661pt"
   viewBox="0 0 171.1835 167.99661"
   version="1.1"
   id="svg14"
   sodipodi:docname="just-luna-logo.svg"
   inkscape:version="1.0.2-2 (e86c870879, 2021-01-15)">
  <metadata
     id="metadata20">
    <rdf:RDF>
      <cc:Work
         rdf:about="">
        <dc:format>image/svg+xml</dc:format>
        <dc:type
           rdf:resource="http://purl.org/dc/dcmitype/StillImage" />
        <dc:title />
      </cc:Work>
    </rdf:RDF>
  </metadata>
  <defs
     id="defs18" />
  <sodipodi:namedview
     pagecolor="#ffffff"
     bordercolor="#666666"
     borderopacity="1"
     objecttolerance="10"
     gridtolerance="10"
     guidetolerance="10"
     inkscape:pageopacity="0"
     inkscape:pageshadow="2"
     inkscape:window-width="2880"
     inkscape:window-height="1526"
     id="namedview16"
     showgrid="false"
     inkscape:zoom="1.7910448"
     inkscape:cx="83.670941"
     inkscape:cy="165.45584"
     inkscape:window-x="2869"
     inkscape:window-y="9"
     inkscape:window-maximized="1"
     inkscape:current-layer="f9146ffff"
     inkscape:document-rotation="0" />
  <g
     id="f9146ffff"
     transform="translate(-90.635247,-0.34833823)">
    <path
       fill="#9146ff"
       opacity="1"
       d="m 165.3,1.16 c 7.05,-1.84 14.89,-0.53 20.84,3.71 7.3,5.06 11.61,14.21 10.49,23.08 -1.21,12.11 -1.48,25.43 5.25,36.12 4.2,7.16 8.31,14.38 12.48,21.56 5.36,9.49 14.47,16.74 24.87,19.96 8.44,2.53 15.69,8.75 19.45,16.72 5.25,10.75 3.83,24.38 -3.63,33.76 -8.12,10.67 -23.2,14.98 -35.81,10.55 -6.62,-2.04 -11.35,-7.46 -17.62,-10.19 -18.1,-9 -38.94,-9.28 -58.65,-7.62 -10.59,0.79 -20.63,4.49 -30.7,7.58 -7.34,2.06 -15.73,-1.55 -19.4,-8.2 -4.85,-8.19 -1.51,-20 7.16,-24.14 7.94,-4.24 13.34,-11.64 17.85,-19.2 8.22,-14.14 16.34,-28.33 24.53,-42.48 4.74,-8.25 5.07,-18.08 4.84,-27.35 -0.03,-4.68 -1.39,-9.37 -0.34,-14.02 1.55,-9.46 9.1,-17.56 18.39,-19.84 m 0.14,58.47 c -5.47,2.08 -8.56,7.46 -11.82,11.97 -8.07,12.05 -15.12,24.79 -21.06,38.02 -3.35,7.69 0.1,17.42 7.44,21.4 4.87,2.67 10.6,2.43 15.97,3.01 13.98,0.76 28.08,0.75 41.98,-1.08 7.41,-1.01 13.16,-7.64 14.08,-14.9 0.75,-4.78 -1.46,-9.31 -3.58,-13.45 -3.82,-8.26 -8.46,-16.11 -13.01,-23.98 -3.65,-6.18 -7.42,-12.42 -12.49,-17.56 -4.46,-4.58 -11.65,-5.33 -17.51,-3.43 z"
       id="path2"
       style="fill:#ffffff" />
  </g>
</svg>
